<svg id="delete" xmlns="http://www.w3.org/2000/svg" width="20" height="20" viewBox="0 0 20 20">
  <defs>
    <style>
      .cls-1 {
        fill: #6d36f3;
        opacity: 0;
      }

      .cls-2 {
        fill: #8794a8;
        fill-rule: evenodd;
      }
    </style>
  </defs>
  <rect id="矩形_654" data-name="矩形 654" class="cls-1" width="20" height="20"/>
  <path id="形状_12" data-name="形状 12" class="cls-2" d="M1807.39,99.821a0.773,0.773,0,0,0,.77-0.771l-0.77-7.692a0.77,0.77,0,1,0-1.54,0l0.77,7.692a0.768,0.768,0,0,0,.77.771h0ZM1817,86h-6V85c0-.85-0.15-1-1-1h-2c-0.85,0-1,.15-1,1v1h-6c-0.82,0-.82,2,0,2h16C1817.98,88,1818.02,86,1817,86Zm-7,0h-2V85h2v1Zm5.16,3.062a0.829,0.829,0,0,0-.83.8L1813,101h-8l-1.47-11.178h-0.01a0.84,0.84,0,0,0-.83-0.759,0.831,0.831,0,0,0-.83.759h-0.03l1.58,11.992a0.764,0.764,0,0,0-.01-0.21,1.531,1.531,0,0,0,1.52,1.3h8.04a1.535,1.535,0,0,0,1.52-1.3,0.693,0.693,0,0,0-.01.142l1.56-11.922h-0.04a0.838,0.838,0,0,0-.83-0.757h0Zm-3.92,9.988,0.77-7.692a0.774,0.774,0,0,0-.77-0.771,0.766,0.766,0,0,0-.77.771l-0.77,7.692a0.77,0.77,0,1,0,1.54,0h0Zm0,0" transform="translate(-1799 -83)"/>
</svg>
