<svg xmlns="http://www.w3.org/2000/svg" width="44" height="52" viewBox="0 0 44 52">
  <g fill="none" fillRule="evenodd">
    <path d="M51 22c0 16.016-12.984 29-29 29S-7 38.016-7 22 5.984-7 22-7 51 5.984 51 22"/>
    <path d="M51 22c0 16.016-12.984 29-29 29S-7 38.016-7 22 5.984-7 22-7 51 5.984 51 22z"/>
    <path fill="#eee" d="M44 22c0 12.15-9.851 22-22 22C9.85 44 0 34.15 0 22S9.85 0 22 0c12.149 0 22 9.85 22 22"/>
    <path fill="#ccc" d="M30 36l10 3 3 3c-5.281 5.545-12.738 9-21 9-8.254 0-15.69-3.494-21-9l3-3 10-3"/>
    <path fill="#FFF" d="M26 40l-4-2-4 2-4-4 2-3h1v-4l5 1 5-1v4h1l2 3z"/>
    <path stroke="#eee" strokeWidth="2" d="M26 40l-4-2-4 2-4-4 2-3 6 1 6-1 2 3z"/>
    <path stroke="#ccc" strokeWidth="2" d="M27 29v4M17 33v-4"/>
    <path stroke="#FFF" strokeWidth="2" d="M21 43h2M21 47h2"/>
    <path fill="#FFF" d="M31 16v4c-1 7-4 9-4 9-2 1-5 1-5 1s-3 0-5-1c0 0-3-2-4-9v-4l4-2 10 4 4-2z"/>
    <path fill="#eee" d="M13 16c0-6.075 2.925-9 9-9s9 2.925 9 9l-4 2-5-2-5-2-4 2z"/>
    <path stroke="#eee" strokeWidth="2" d="M31 16v4c-1 7-4 9-4 9-2 1-5 1-5 1s-3 0-5-1c0 0-3-2-4-9v-4"/>
    <path stroke="#ddd" strokeWidth="2" d="M13 16c0-6.075 2.925-9 9-9s9 2.925 9 9"/>
    <path stroke="#ddd" strokeWidth="2" d="M13 16l4-2 5 2 5 2 4-2"/>
    <path stroke="#eee" strokeLinejoin="round" strokeWidth="2" d="M30 36l10 3 3 3c-5.281 5.545-12.738 9-21 9-8.254 0-15.69-3.494-21-9l3-3 10-3"/>
  </g>
</svg>
