<?xml version="1.0" encoding="utf-8"?>
<!-- Generator: Adobe Illustrator 16.0.0, SVG Export Plug-In . SVG Version: 6.00 Build 0)  -->
<!DOCTYPE svg PUBLIC "-//W3C//DTD SVG 1.1//EN" "http://www.w3.org/Graphics/SVG/1.1/DTD/svg11.dtd" [
	<!ENTITY ns_flows "http://ns.adobe.com/Flows/1.0/">
	<!ENTITY ns_extend "http://ns.adobe.com/Extensibility/1.0/">
	<!ENTITY ns_ai "http://ns.adobe.com/AdobeIllustrator/10.0/">
	<!ENTITY ns_graphs "http://ns.adobe.com/Graphs/1.0/">
	<!ENTITY ns_vars "http://ns.adobe.com/Variables/1.0/">
	<!ENTITY ns_imrep "http://ns.adobe.com/ImageReplacement/1.0/">
	<!ENTITY ns_sfw "http://ns.adobe.com/SaveForWeb/1.0/">
	<!ENTITY ns_custom "http://ns.adobe.com/GenericCustomNamespace/1.0/">
	<!ENTITY ns_adobe_xpath "http://ns.adobe.com/XPath/1.0/">
]>
<svg version="1.1" id="图层_1" xmlns:x="&ns_extend;" xmlns:i="&ns_ai;" xmlns:graph="&ns_graphs;"
	 xmlns="http://www.w3.org/2000/svg" xmlns:xlink="http://www.w3.org/1999/xlink" xmlns:a="http://ns.adobe.com/AdobeSVGViewerExtensions/3.0/"
	 x="0px" y="0px" width="1024px" height="1024px" viewBox="0 0 1024 1024" enable-background="new 0 0 1024 1024"
	 xml:space="preserve">
<metadata><?xpacket begin="﻿" id="W5M0MpCehiHzreSzNTczkc9d"?>
<x:xmpmeta xmlns:x="adobe:ns:meta/" x:xmptk="Adobe XMP Core 5.3-c011 66.145661, 2012/02/06-14:56:27        ">
   <rdf:RDF xmlns:rdf="http://www.w3.org/1999/02/22-rdf-syntax-ns#">
      <rdf:Description rdf:about=""
            xmlns:dc="http://purl.org/dc/elements/1.1/">
         <dc:format>image/svg+xml</dc:format>
         <dc:title>
            <rdf:Alt>
               <rdf:li xml:lang="x-default">图标制作模版</rdf:li>
            </rdf:Alt>
         </dc:title>
      </rdf:Description>
      <rdf:Description rdf:about=""
            xmlns:xmp="http://ns.adobe.com/xap/1.0/"
            xmlns:xmpGImg="http://ns.adobe.com/xap/1.0/g/img/">
         <xmp:CreatorTool>Adobe Illustrator CS6 (Windows)</xmp:CreatorTool>
         <xmp:CreateDate>2018-10-24T09:40:20+08:00</xmp:CreateDate>
         <xmp:ModifyDate>2018-10-24T09:40:20+08:00</xmp:ModifyDate>
         <xmp:MetadataDate>2018-10-24T09:40:20+08:00</xmp:MetadataDate>
         <xmp:Thumbnails>
            <rdf:Alt>
               <rdf:li rdf:parseType="Resource">
                  <xmpGImg:width>256</xmpGImg:width>
                  <xmpGImg:height>256</xmpGImg:height>
                  <xmpGImg:format>JPEG</xmpGImg:format>
                  <xmpGImg:image>/9j/4AAQSkZJRgABAgEASABIAAD/7QAsUGhvdG9zaG9wIDMuMAA4QklNA+0AAAAAABAASAAAAAEA&#xA;AQBIAAAAAQAB/+4ADkFkb2JlAGTAAAAAAf/bAIQABgQEBAUEBgUFBgkGBQYJCwgGBggLDAoKCwoK&#xA;DBAMDAwMDAwQDA4PEA8ODBMTFBQTExwbGxscHx8fHx8fHx8fHwEHBwcNDA0YEBAYGhURFRofHx8f&#xA;Hx8fHx8fHx8fHx8fHx8fHx8fHx8fHx8fHx8fHx8fHx8fHx8fHx8fHx8fHx8f/8AAEQgBAAEAAwER&#xA;AAIRAQMRAf/EAaIAAAAHAQEBAQEAAAAAAAAAAAQFAwIGAQAHCAkKCwEAAgIDAQEBAQEAAAAAAAAA&#xA;AQACAwQFBgcICQoLEAACAQMDAgQCBgcDBAIGAnMBAgMRBAAFIRIxQVEGE2EicYEUMpGhBxWxQiPB&#xA;UtHhMxZi8CRygvElQzRTkqKyY3PCNUQnk6OzNhdUZHTD0uIIJoMJChgZhJRFRqS0VtNVKBry4/PE&#xA;1OT0ZXWFlaW1xdXl9WZ2hpamtsbW5vY3R1dnd4eXp7fH1+f3OEhYaHiImKi4yNjo+Ck5SVlpeYmZ&#xA;qbnJ2en5KjpKWmp6ipqqusra6voRAAICAQIDBQUEBQYECAMDbQEAAhEDBCESMUEFURNhIgZxgZEy&#xA;obHwFMHR4SNCFVJicvEzJDRDghaSUyWiY7LCB3PSNeJEgxdUkwgJChgZJjZFGidkdFU38qOzwygp&#xA;0+PzhJSktMTU5PRldYWVpbXF1eX1RlZmdoaWprbG1ub2R1dnd4eXp7fH1+f3OEhYaHiImKi4yNjo&#xA;+DlJWWl5iZmpucnZ6fkqOkpaanqKmqq6ytrq+v/aAAwDAQACEQMRAD8A9U4q7FXYq7FXYq7FXYq7&#xA;FXYq7FXYq7FXYq7FXYq7FXYq7FXYq7FXYq7FXYq7FXYq7FXYq7FXYq7FXYq7FXYq7FXYq7FXYq7F&#xA;XYq7FXYq7FXYq7FXYq7FXYq7FXYq7FXYq7FXYq7FXYq7FXYq7FXYq7FXYq7FXYq7FXYq7FXYq7FX&#xA;Yq7FXYq7FXYq7FXYq7FXYq7FXYq7FXYq7FXYq7FXYq7FXYq7FXYq7FXYq7FXYq7FXYq7FXYq7FXY&#xA;q7FXYq7FXYq7FXYq7FXYq7FXYq7FXYq7FXYq7FXYq7FXYq7FXYq7FWmdVpyIFTQVNKk9sVbxV2Ku&#xA;xV2KuxV2KuxV2KuxV2KuxV2KuxV2KuxV2KuxV2KuxV2KuxV2KuxV2KuxV2KuxV2KuxV2KsC8/fmG&#xA;NL56ZpLhtR6Tz7MsPsOxf9WKvJru8u7yZp7qZ55m3aSRizH6TiqceXPOWtaFcI0EzS2gP7yzkYmN&#xA;l70rXifcYq9u0LXdP1rT0vrF+UbbOh+2j90cdiMVTDFXYq7FXYq7FXYq7FXYq7FXYq7FXYq7FXYq&#xA;7FXYq7FXYq7FXYq7FXYq7FXYq7FXYq7FWA/mD+YK6csmlaVIDqBHG4uF3EIP7K/5f6vniryJmZmL&#xA;MSWJqSdyScVaxV2Kpx5Z8zah5f1AXVqeUbUFxbk/BIngfAjse2KvdNC13T9a09L6xflG2zofto/d&#xA;HHYjFUwxV2KuxV2KuxV2KuxV2KuxV2KuxV2KuxV2KuxV2KuxV2KuxV2KuxV2KuxV2KuxVKvNR1f/&#xA;AA/e/ocE6jwHo8acqchz41/a4Vp74q+epOfNvUr6lTz5da961xVbirsVdirsVT/yV5kn0LW4Zg5+&#xA;pzssd5H2MZNOVPFOo/txV77irsVdirsVdirsVdirsVdirsVdirsVdirsVdirsVdirsVdirsVdirs&#xA;VdirsVYp518+Wvl5Bb26rc6m9CISfhjX+aSm+/YYqv8AJXni18xQNFIog1KIVlgFeLLX7aV7eI7Y&#xA;qlP5g/l8uorJqulRgagByuLddhMB+0v+X+v54q8iZWVirAhgaEHYgjFWsVdirsVVba3lubiK3hXl&#xA;LM6xxr4sxoB95xV9LIvFQtS1ABU9TTFW8VdirsVdirsVdirsVdirsVdirsVdirsVdirsVdirsVdi&#xA;rsVdirsVdirDvPnnyHQ4jZWLLJq0g9isKn9ph/N/Kv0n3VeM3FxPczyXFxI0s0rFpJGNWZj1JOKr&#xA;rK9u7G7iu7SVobiFuUci9Qf8+oxV7f5K862nmG09OTjDqcK/v4OzDp6kdf2f1Yqk/wCYP5fLqKya&#xA;rpUYGoAcri3XYTAftL/l/r+eKvImVlYqwIYGhB2IIxVrFWwCSABUnoMVetfl3+X5sPT1jVUpekVt&#xA;bZv91Aj7Tj+enbt8+ir0HFXYq7FXYq7FXYq7FXYq7FXYq7FXYq7FXYq7FXYq7FXYq7FXYq7FXYqw&#xA;7z558h0OFrGxZZNWkX5rCp/ab/K/lX6T7qvF5ppp5nmmdpJZGLSSMaszHckk4qsxV2Kq9le3djdx&#xA;XdpK0NxC3KOReoP+fUYq9v8AJXnW08w2npycYdThX9/B2YdPUjr+z+rFUn/MH8vl1FZNV0qMDUAO&#xA;VxbrsJgP2l/y/wBfzxV5GUcOUKkODQrTevhTFXrH5e/l6LIR6vq8dbw0a1tWH914O4/n8B+z8+ir&#xA;0LFXYq7FXYq7FXYq7FXYq7FXYq7FXYq7FXYq7FXYq7FXYq7FXYq7FXYqwrz75/j0WNtP05lfVXHx&#xA;NsywA9yOhfwH0n3VeNzTTTzPNM7SSyMWkkY1ZmO5JJxVZirsVdirsVV7K9u7G7iu7SVobiFuUci9&#xA;Qf8APqMVe3+SvOtp5htPTk4w6nCv7+Dsw6epHX9n9WKpgfKfl06v+lzZIdQ5c/Wq1OQFOXCvDl78&#xA;eu/XFU2xV2KuxV2KuxV2KuxV2KuxV2KuxV2KuxV2KuxV2KuxV2KuxV2KuxV2KsK8/efo9GjbT9PY&#xA;Pqrj4m6iAHuf8vwH0n3VeNyyySyNLKxeRyWd2NSSdySTiqzFXYq7FXYq7FXYq9M/LPyPcieHX7/n&#xA;CqfFZQAlWeopzf8AyaHYd/l1VeoYq7FXYq7FXYq7FXYq7FXYq7FXYq7FXYq7FXYq7FXYq7FXYq7F&#xA;XYq7FWE+ffP8WjxNp+nOsmquKO4oVgB7n/L8B9J91XjkssksjSysXkclndjUknckk4qsxV2KuxV2&#xA;KuxV2KvSvy//AC6Ewi1fWo/3Wz2lmw+13DyA9vBe/fbFXqWKuxV2KuxV2KuxV2KuxV2KuxV2KuxV&#xA;2KuxV2KuxV2KuxV2KuxV2KuxVg35gfmAmlI+maY4bU2FJZRuIAf+N/AdsVePO7u7O7FnYlmZjUkn&#xA;ckk4qtxV2KuxV2KuxV2KvTPy8/Lzn6WsaxF8Gz2dm4+13EkgPb+VcVeoYq7FXYq7FXYq7FXYq7FX&#xA;Yq7FXYq7FXYq7FXYq7FXYq7FXYq7FXYq7FWDfmB+YCaUj6ZpjhtTYUllG4gB/wCN/AdsVePO7u7O&#xA;7FnYlmZjUknckk4qtxV2KuxV2KuxV2KvTPy8/Lzn6WsaxF8Gz2dm4+13EkgPb+VcVeoYq7FXYq7F&#xA;XYq7FXYq7FXYq7FXYq7FXYq7FXYq7FXYq7FXYq7FXYq7FWC+f/zAj0pH0zTHD6mwpLKNxAD/AMb+&#xA;3bFXj7u7uzuxZ2JZmY1JJ3JJOKrcVdirsVdirsVdir0/8v8A8ul4x6vrUVSaPaWbjp3DyD9S/fir&#xA;03FXYq7FXYq7FXYq7FXYq7FXYq7FXYq7FXYq7FXYq7FXYq7FXYq7FXYqwH8wfzBXTlk0rSpAdQI4&#xA;3Fwu4hB/ZX/L/V88VeRMzMxZiSxNSTuSTirWKuxV2KuxV2KuxV6j+Xn5ecPS1jWIvj2ezs3HTuJJ&#xA;Ae/8q4q9LxV2KuxV2KuxV2KuxV2KuxV2KuxV2KuxV2KuxV2KuxV2KuxV2KuxV2KsS/MjzFqOi6Kh&#xA;sFKy3TmI3IB/dCldu3I9sVeIszMxZiSxNSTuSTirWKuxV2KuxV2KuxV6l+X/AOXRiMWr61H+82e1&#xA;s2H2e4eQHv4L2774q9KxV2KuxV2KuxV2KuxV2KuxV2KuxV2KuxV2KuxV2KuxV2KuxV2KuxV2KpP5&#xA;o8zWfl6wS8uUaUSSrEsSEBjWpYiv8qg4qiUfSNf0io4XenXabjsR+sMD9IOKvGfOvkq78vXfqR8p&#xA;tMmb9xP3U9eD0/a/XirGMVdirsVdirsVeq/l7+Xv1f09Y1iP/SNntLRx9juHcH9rwHb59FXo+Kux&#xA;V2KuxV2KuxV2KuxV2KuxV2KuxV2KuxV2KuxV2KuxV2KuxV2KuxV2KvHfza1n63r0enxtWGwSjDt6&#xA;slGb7l4j78VSjyb5yvPLt53m06Yj6zbV+jmlejD8f1KvakfSNf0io4XenXabjsR+sMD9IOKvGfOv&#xA;kq78vXfqR8ptMmb9xP3U9eD0/a/XirGMVdirYBJAAqT0GKvVPy9/L36v6esaxH/pGz2lo4+x3DuD&#xA;+14Dt8+ir0fFXYq7FXYq7FXYq7FXYq7FXYq7FXYq7FXYq7FXYq7FXYq7FXYq7FXYq7FUPqV9DYWF&#xA;xezf3VtG0r+4UVoPc4q+cr27mvLye7mNZriRpZD/AJTmp/XiqhirI/JvnK88u3nebTpiPrNtX6Oa&#xA;V6MPx/Uq9qR9I1/SKjhd6ddpuOxH6wwP0g4q8Z86+Srvy9d+pHym0yZv3E/dT14PT9r9eKsZAJIA&#xA;FSegxV6z+Xv5eiyEer6vHW8NGtbVh/deDuP5/Afs/Poq9CxV2KuxV2KuxV2KuxV2KuxV2KuxV2Ku&#xA;xV2KuxV2KuxV2KuxV2KuxV2KuxV2KsB/N7Wvq+jwaXG37y9fnKP+KoiD+L0+7FXkOKuxV2Ksj8m+&#xA;crzy7ed5tOmI+s21fo5pXow/H9Sr2pH0jX9IqOF3p12m47EfrDA/SDirHvL35Z6Po+ptfmVrtkNb&#xA;SOVQBEa7MafaYdjirMMVdirsVdirsVdirsVdirsVdirsVdirsVdirsVdirsVdirsVdirsVdirsVd&#xA;irsVeC+fta/S3me7lRuVvbn6vb9xxj2JHszVOKsdxV2KuxVOtG8n+YtY4tZ2b+i3/HxJ+7jp4hmp&#xA;X/Y1xV6t5F8m3/lxJvrN/wCuJx8VpGD6SuCPjDNuTTboMVZZirsVdirsVdirsVdirsVdirsVdirs&#xA;VdirsVdirsVdirsVdirsVdirsVdirsVdiqS+ctZ/Q/ly8vFbjMU9K38fUk+FSP8AV+19GKvn3FUT&#xA;Y6df383oWVvJcy/yRqWI9zTpirNtG/KHWLnjJqk6WMfUxJSWX5bHgPvOKs70byD5Y0ni8VoLidf9&#xA;33NJGqO4BHBT8lxVkWKuxV2KuxV2KuxV2KuxV2KuxV2KuxV2KuxV2KuxV2KuxV2KuxV2KuxV2Kux&#xA;V2KuxV2KsN8/+XNe8wzWVjZBIrCKss88j0X1D8KjiKsSq17d8VUNG/KXQrTjJqMj38w3KH93FX/V&#xA;U8j9LfRirM7Sys7OEQWkCW8K9I4lCL9wpiqtirsVdirsVdirsVdirsVdirsVdirsVdirsVdirsVd&#xA;irsVdirsVdirsVdirsVdirsVdirsVdirsVdirsVdirsVdirsVdirsVdirsVdirsVdirsVdirsVdi&#xA;rsVdirsVdirsVdirsVdirsVdirsVeHebPPmtanqcy2t3La2EblIIoXZOSqdmcqRyJ6+2KWPNquqM&#xA;SzXk5J3JMjk/rxVr9Kan/wAtc3/Ix/64q79Kan/y1zf8jH/rirv0pqf/AC1zf8jH/rirv0pqf/LX&#xA;N/yMf+uKu/Smp/8ALXN/yMf+uKu/Smp/8tc3/Ix/64q79Kan/wAtc3/Ix/64q79Kan/y1zf8jH/r&#xA;irv0pqf/AC1zf8jH/rirv0pqf/LXN/yMf+uKu/Smp/8ALXN/yMf+uKu/Smp/8tc3/Ix/64q79Kan&#xA;/wAtc3/Ix/64q79Kan/y1zf8jH/rirv0pqf/AC1zf8jH/rirv0pqf/LXN/yMf+uKu/Smp/8ALXN/&#xA;yMf+uKu/Smp/8tc3/Ix/64q79Kan/wAtc3/Ix/64q79Kan/y1zf8jH/rirv0pqf/AC1zf8jH/riq&#xA;e+WvPmuaTqETz3Ut1YlgLiCVzIOFdynKvFh7Yq92BBAINQdwRih2KuxV2KuxV2KuxV2KvAfNflLU&#xA;tD1GdHgdrIsWt7lVJQodxUjowHUYpSDFXYq7FVUW1wQCInIPQ8Tirvqtz/vp/wDgTirvqtz/AL6f&#xA;/gTirvqtz/vp/wDgTirvqtz/AL6f/gTirvqtz/vp/wDgTirvqtz/AL6f/gTirvqtz/vp/wDgTirv&#xA;qtz/AL6f/gTirvqtz/vp/wDgTirvqtz/AL6f/gTirvqtz/vp/wDgTirvqtz/AL6f/gTirvqtz/vp&#xA;/wDgTirvqtz/AL6f/gTirvqtz/vp/wDgTirvqtz/AL6f/gTirvqtz/vp/wDgTirvqtz/AL6f/gTi&#xA;qceWvKWq63qEUKQSJa8h9ZuWUhESvxbnq1OgxV9AKoVQoFABQD2xQ7FXYq7FXYq7FXYq7FXYq7FX&#xA;Yq7FXYq7FXYq7FXYq7FXYq7FXYq7FXYq7FXYq7FXYq7FXYq7FXYq7FXYq7FXYq7FXYq7FXYq7FXY&#xA;q7FXYq7FXYq7FXYq7FXYq7FXYq7FXYq7FXYq7FXYq7FXYq7FXYq7FXYq7FXYq7FXYq7FXYq7FXYq&#xA;7FXYq7FXYq7FXYq7FXYq7FXYq7FXYq7FXYq7FXYq7FXYq7FXYq7FXYq7FXYq7FXYq7FXYq7FXYq7&#xA;FXYq7FXYq7FXYq7FXYq7FXYq7FXYq7FXYq7FXYq7FXYq7FXYq7FXYq7FXYq7FXYq7FXYq7FXYq7F&#xA;X//Z</xmpGImg:image>
               </rdf:li>
            </rdf:Alt>
         </xmp:Thumbnails>
      </rdf:Description>
      <rdf:Description rdf:about=""
            xmlns:xmpMM="http://ns.adobe.com/xap/1.0/mm/"
            xmlns:stRef="http://ns.adobe.com/xap/1.0/sType/ResourceRef#"
            xmlns:stEvt="http://ns.adobe.com/xap/1.0/sType/ResourceEvent#">
         <xmpMM:OriginalDocumentID>uuid:9E3E5C9A8C81DB118734DB58FDDE4BA7</xmpMM:OriginalDocumentID>
         <xmpMM:DocumentID>xmp.did:90926BC42DD7E811B73DB4B9FA9172EE</xmpMM:DocumentID>
         <xmpMM:InstanceID>xmp.iid:90926BC42DD7E811B73DB4B9FA9172EE</xmpMM:InstanceID>
         <xmpMM:RenditionClass>proof:pdf</xmpMM:RenditionClass>
         <xmpMM:DerivedFrom rdf:parseType="Resource">
            <stRef:instanceID>uuid:aef062bb-96b8-0a40-bddb-3a74d54d7565</stRef:instanceID>
            <stRef:documentID>xmp.did:2537f5a9-5972-44dd-bf21-666832333e23</stRef:documentID>
            <stRef:originalDocumentID>uuid:9E3E5C9A8C81DB118734DB58FDDE4BA7</stRef:originalDocumentID>
            <stRef:renditionClass>proof:pdf</stRef:renditionClass>
         </xmpMM:DerivedFrom>
         <xmpMM:History>
            <rdf:Seq>
               <rdf:li rdf:parseType="Resource">
                  <stEvt:action>saved</stEvt:action>
                  <stEvt:instanceID>xmp.iid:2537f5a9-5972-44dd-bf21-666832333e23</stEvt:instanceID>
                  <stEvt:when>2016-11-02T11:23:42+08:00</stEvt:when>
                  <stEvt:softwareAgent>Adobe Illustrator CC (Macintosh)</stEvt:softwareAgent>
                  <stEvt:changed>/</stEvt:changed>
               </rdf:li>
               <rdf:li rdf:parseType="Resource">
                  <stEvt:action>saved</stEvt:action>
                  <stEvt:instanceID>xmp.iid:90926BC42DD7E811B73DB4B9FA9172EE</stEvt:instanceID>
                  <stEvt:when>2018-10-24T09:40:20+08:00</stEvt:when>
                  <stEvt:softwareAgent>Adobe Illustrator CS6 (Windows)</stEvt:softwareAgent>
                  <stEvt:changed>/</stEvt:changed>
               </rdf:li>
            </rdf:Seq>
         </xmpMM:History>
      </rdf:Description>
      <rdf:Description rdf:about=""
            xmlns:illustrator="http://ns.adobe.com/illustrator/1.0/">
         <illustrator:StartupProfile>Basic RGB</illustrator:StartupProfile>
      </rdf:Description>
      <rdf:Description rdf:about=""
            xmlns:xmpTPg="http://ns.adobe.com/xap/1.0/t/pg/"
            xmlns:stDim="http://ns.adobe.com/xap/1.0/sType/Dimensions#"
            xmlns:xmpG="http://ns.adobe.com/xap/1.0/g/">
         <xmpTPg:NPages>1</xmpTPg:NPages>
         <xmpTPg:HasVisibleTransparency>False</xmpTPg:HasVisibleTransparency>
         <xmpTPg:HasVisibleOverprint>False</xmpTPg:HasVisibleOverprint>
         <xmpTPg:MaxPageSize rdf:parseType="Resource">
            <stDim:w>1024.000000</stDim:w>
            <stDim:h>1024.000000</stDim:h>
            <stDim:unit>Pixels</stDim:unit>
         </xmpTPg:MaxPageSize>
         <xmpTPg:PlateNames>
            <rdf:Seq>
               <rdf:li>Cyan</rdf:li>
               <rdf:li>Magenta</rdf:li>
               <rdf:li>Yellow</rdf:li>
            </rdf:Seq>
         </xmpTPg:PlateNames>
         <xmpTPg:SwatchGroups>
            <rdf:Seq>
               <rdf:li rdf:parseType="Resource">
                  <xmpG:groupName>默认色板组</xmpG:groupName>
                  <xmpG:groupType>0</xmpG:groupType>
               </rdf:li>
            </rdf:Seq>
         </xmpTPg:SwatchGroups>
      </rdf:Description>
      <rdf:Description rdf:about=""
            xmlns:pdf="http://ns.adobe.com/pdf/1.3/">
         <pdf:Producer>Adobe PDF library 10.01</pdf:Producer>
      </rdf:Description>
   </rdf:RDF>
</x:xmpmeta>
                                                                                                    
                                                                                                    
                                                                                                    
                                                                                                    
                                                                                                    
                                                                                                    
                                                                                                    
                                                                                                    
                                                                                                    
                                                                                                    
                                                                                                    
                                                                                                    
                                                                                                    
                                                                                                    
                                                                                                    
                                                                                                    
                                                                                                    
                                                                                                    
                                                                                                    
                                                                                                    
                           
<?xpacket end="w"?>
	</metadata>
<g>
	<path display="none" fill-rule="evenodd" clip-rule="evenodd" fill="#FFFFFF" d="M470,914c-137.5,0-275-0.018-412.5,0.094
		c-3.749,0.004-4.595-0.844-4.593-4.594c0.102-275,0.102-550,0-825c-0.001-3.748,0.843-4.595,4.593-4.594
		c275,0.103,550,0.103,825,0.001c3.748-0.002,4.596,0.842,4.595,4.592c-0.103,275-0.103,550-0.001,825
		c0.002,3.747-0.84,4.599-4.592,4.596C745.001,913.982,607.5,914,470,914z M699.979,371.392c-0.263-1.882-1.687-2.655-2.704-3.676
		c-31.4-31.504-62.851-62.957-94.19-94.521c-2.528-2.546-3.939-2.891-6.686-0.142c-16.244,16.258-32.722,32.281-49.085,48.421
		c-26.799,26.434-53.589,52.875-80.347,79.349c-46.179,45.688-92.313,91.422-138.543,137.059c-2.533,2.501-2.983,3.922-0.191,6.701
		c31.64,31.498,63.167,63.11,94.624,94.792c2.423,2.44,3.719,2.575,6.239,0.063c24.059-23.993,48.245-47.858,72.424-71.729
		c22.993-22.701,46.046-45.341,69.028-68.054c42.413-41.916,84.795-83.864,127.184-125.806
		C698.545,373.045,699.279,372.16,699.979,371.392z M469.029,809c96.311,0,192.623,0.006,288.934-0.009
		c11.249-0.001,20.035-5.824,23.367-15.336c3.885-11.089,1.004-21.815-7.791-28.698c-5.682-4.447-12.593-4.868-19.269-4.872
		c-187.291-0.105-374.583-0.09-561.874-0.058c-4.776,0.001-9.531,0.305-14.324,0.768c-17.438,1.682-24.437,22.468-17.658,35.321
		c4.908,9.306,12.621,13.009,23.178,12.988C278.738,808.926,373.883,809,469.029,809z M697.602,183.973
		c-10.372,0.726-20.012,4.674-27.907,12.557c-16.509,16.485-32.934,33.056-49.559,49.423c-2.738,2.695-2.85,4.087-0.038,6.879
		c31.455,31.233,62.803,62.575,94.031,94.034c2.915,2.937,4.375,3.047,7.329,0.049c16.96-17.209,34.145-34.196,51.279-51.232
		c8.132-8.084,10.724-18.24,10.079-29.155c-0.65-10.992-5.383-20.393-13.26-28.229c-13.939-13.868-28.07-27.563-41.518-41.897
		C719.754,187.569,709.705,184.521,697.602,183.973z M245.634,724.321c2.204,1.025,3.374,0.013,4.513-0.422
		c25.227-9.63,50.412-19.368,75.627-29.027c26.165-10.023,52.363-19.961,78.51-30.028c1.869-0.72,5.498-0.959,1.802-4.649
		c-31.699-31.654-63.279-63.429-94.836-95.225c-2.591-2.61-4.062-2.367-5.149,1.083c-0.342,1.084-0.8,2.131-1.205,3.194
		c-5.471,14.358-10.934,28.72-16.417,43.073c-4.884,12.785-9.779,25.565-14.693,38.339c-5.635,14.648-11.325,29.276-16.937,43.934
		C253.082,704.433,249.408,714.309,245.634,724.321z"/>
	<path fill-rule="evenodd" clip-rule="evenodd" fill="#898989" d="M699.979,371.392c-0.7,0.769-1.435,1.653-2.247,2.457
		c-42.389,41.941-84.771,83.89-127.184,125.806c-22.982,22.713-46.035,45.353-69.028,68.054
		c-24.179,23.871-48.366,47.736-72.424,71.729c-2.52,2.513-3.816,2.378-6.239-0.063c-31.457-31.682-62.983-63.294-94.624-94.792
		c-2.792-2.779-2.342-4.2,0.191-6.701c46.23-45.637,92.364-91.371,138.543-137.059c26.758-26.474,53.548-52.915,80.347-79.349
		c16.363-16.14,32.841-32.163,49.085-48.421c2.746-2.749,4.157-2.404,6.686,0.142c31.34,31.563,62.79,63.017,94.19,94.521
		C698.293,368.736,699.717,369.51,699.979,371.392z"/>
	<path fill-rule="evenodd" clip-rule="evenodd" fill="#898989" d="M469.029,809c-95.146,0-190.291-0.074-285.436,0.104
		c-10.557,0.021-18.27-3.683-23.178-12.988c-6.779-12.854,0.22-33.64,17.658-35.321c4.793-0.463,9.548-0.767,14.324-0.768
		c187.291-0.032,374.583-0.048,561.874,0.058c6.676,0.004,13.587,0.425,19.269,4.872c8.795,6.883,11.676,17.609,7.791,28.698
		c-3.332,9.512-12.118,15.335-23.367,15.336C661.651,809.006,565.34,809,469.029,809z"/>
	<path fill-rule="evenodd" clip-rule="evenodd" fill="#898989" d="M697.602,183.973c12.104,0.549,22.152,3.597,30.438,12.428
		c13.447,14.334,27.578,28.029,41.518,41.897c7.877,7.836,12.609,17.236,13.26,28.229c0.645,10.915-1.947,21.071-10.079,29.155
		c-17.135,17.036-34.319,34.023-51.279,51.232c-2.954,2.998-4.414,2.888-7.329-0.049c-31.229-31.459-62.576-62.801-94.031-94.034
		c-2.812-2.792-2.7-4.184,0.038-6.879c16.625-16.367,33.05-32.938,49.559-49.423C677.59,188.646,687.229,184.698,697.602,183.973z"
		/>
	<path fill-rule="evenodd" clip-rule="evenodd" fill="#8A8A8A" d="M245.634,724.321c3.774-10.013,7.448-19.889,11.216-29.729
		c5.612-14.657,11.302-29.285,16.937-43.934c4.914-12.773,9.809-25.554,14.693-38.339c5.483-14.354,10.946-28.715,16.417-43.073
		c0.405-1.063,0.863-2.11,1.205-3.194c1.087-3.45,2.558-3.693,5.149-1.083c31.557,31.796,63.137,63.57,94.836,95.225
		c3.695,3.69,0.066,3.93-1.802,4.649c-26.147,10.067-52.345,20.005-78.51,30.028c-25.215,9.659-50.401,19.397-75.627,29.027
		C249.007,724.334,247.837,725.347,245.634,724.321z"/>
</g>
</svg>
