<svg id="Dowload" xmlns="http://www.w3.org/2000/svg" width="20" height="20" viewBox="0 0 20 20">
  <defs>
    <style>
      .cls-1 {
        fill: #fff;
        opacity: 0;
      }

      .cls-2 {
        fill: #8798ad;
        fill-rule: evenodd;
      }
    </style>
  </defs>
  <rect id="矩形_7" data-name="矩形 7" class="cls-1" width="20" height="20"/>
  <path id="形状_4" data-name="形状 4" class="cls-2" d="M522,155H508c-1.144,0-1.047-2,0-2h14C523.015,153,522.992,155,522,155Zm-1.205-8.775a0.749,0.749,0,0,0-1.049,0L516,150V140c0-1.1-2-1.1-2,0v10l-3.746-3.775a0.749,0.749,0,0,0-1.049,0,0.671,0.671,0,0,0,0,1l5.252,5.023,0,0a0.714,0.714,0,0,0,.251.16,0.745,0.745,0,0,0,.279.051h0.018a0.718,0.718,0,0,0,.22-0.031,0.749,0.749,0,0,0,.406-0.272l5.16-4.935A0.673,0.673,0,0,0,520.795,146.225Z" transform="translate(-505 -137)"/>
</svg>
