<svg id="Favorite" xmlns="http://www.w3.org/2000/svg" width="20" height="20" viewBox="0 0 20 20">
  <defs>
    <style>
      .cls-1 {
        fill: #fff;
        fill-opacity: 0;
      }

      .cls-2 {
        fill: #8794a8;
        fill-rule: evenodd;
      }
    </style>
  </defs>
  <rect id="bg" class="cls-1" width="20" height="20"/>
  <path id="Favorite-2" data-name="Favorite" class="cls-2" d="M1561.82,97.559l0.36-.146a0.863,0.863,0,0,1,.64,0l0.36,0.146,1.84,0.74a0.841,0.841,0,0,0,1.16-.8l-0.05-2.056-0.01-.352a0.8,0.8,0,0,1,.19-0.552l0.22-.274,1.16-1.443a0.84,0.84,0,0,0-.41-1.335l-1.94-.583-0.32-.1a0.79,0.79,0,0,1-.45-0.327l-0.2-.275-1.17-1.691a0.857,0.857,0,0,0-1.4,0l-1.18,1.691-0.19.275a0.861,0.861,0,0,1-.45.327l-0.32.1-1.94.584a0.843,0.843,0,0,0-.42,1.335l1.17,1.442,0.22,0.274a0.853,0.853,0,0,1,.19.552l-0.01.352-0.06,2.191a0.756,0.756,0,0,0,1.04.721Zm5.71,4.373-4.71-1.9a0.867,0.867,0,0,0-.64,0l-4.71,1.9a0.849,0.849,0,0,1-1.17-.805l0.14-5.181a0.8,0.8,0,0,0-.19-0.55l-3.05-3.783a0.84,0.84,0,0,1,.41-1.335l4.86-1.464a0.847,0.847,0,0,0,.46-0.327l2.87-4.126a0.857,0.857,0,0,1,1.4,0l2.87,4.126a0.861,0.861,0,0,0,.45.327l4.86,1.464a0.84,0.84,0,0,1,.41,1.335l-3.05,3.783a0.841,0.841,0,0,0-.18.55l0.14,5.181A0.851,0.851,0,0,1,1567.53,101.932Z" transform="translate(-1553 -83)"/>
</svg>
