<svg id="Favorite_Selt" xmlns="http://www.w3.org/2000/svg" width="20" height="20" viewBox="0 0 20 20">
  <defs>
    <style>
      .cls-1 {
        fill: #2f3b52;
        fill-opacity: 0;
      }

      .cls-2 {
        fill: #6d36f3;
        fill-rule: evenodd;
      }
    </style>
  </defs>
  <rect id="bg" class="cls-1" width="20" height="20"/>
  <path id="Favorite" class="cls-2" d="M1567.7,101.777l-4.64-1.876a0.819,0.819,0,0,0-.62,0l-4.64,1.876a0.838,0.838,0,0,1-1.15-.8l0.14-5.127a0.884,0.884,0,0,0-.18-0.545l-3.01-3.743a0.838,0.838,0,0,1,.41-1.321l4.78-1.448a0.8,0.8,0,0,0,.44-0.323l2.83-4.083a0.833,0.833,0,0,1,1.37,0l2.83,4.083a0.861,0.861,0,0,0,.45.323l4.77,1.448a0.833,0.833,0,0,1,.41,1.321l-3,3.744a0.827,0.827,0,0,0-.18.545l0.13,5.127A0.83,0.83,0,0,1,1567.7,101.777Z" transform="translate(-1553 -83)"/>
</svg>
