<svg id="Favorite-sel" xmlns="http://www.w3.org/2000/svg" width="20" height="20" viewBox="0 0 20 20">
  <defs>
    <style>
      .cls-1 {
        fill: #fff;
        fill-opacity: 0;
      }

      .cls-2 {
        fill: #6d36f3;
        fill-rule: evenodd;
      }
    </style>
  </defs>
  <rect id="bg" class="cls-1" width="20" height="20"/>
  <path id="Favorite" class="cls-2" d="M1567.53,101.932l-4.71-1.9a0.867,0.867,0,0,0-.64,0l-4.71,1.9a0.849,0.849,0,0,1-1.17-.805l0.14-5.181a0.8,0.8,0,0,0-.19-0.55l-3.05-3.783a0.84,0.84,0,0,1,.41-1.335l4.86-1.464a0.847,0.847,0,0,0,.46-0.327l2.87-4.126a0.857,0.857,0,0,1,1.4,0l2.87,4.126a0.861,0.861,0,0,0,.45.327l4.86,1.464a0.84,0.84,0,0,1,.41,1.335l-3.05,3.783a0.841,0.841,0,0,0-.18.55l0.14,5.181A0.851,0.851,0,0,1,1567.53,101.932Z" transform="translate(-1553 -83)"/>
</svg>
