<svg id="filter" xmlns="http://www.w3.org/2000/svg" width="20" height="20" viewBox="0 0 20 20">
  <defs>
    <style>
      .cls-1 {
        fill: #fff;
        opacity: 0;
      }

      .cls-2 {
        fill: #8794a8;
        fill-rule: evenodd;
      }
    </style>
  </defs>
  <rect id="矩形_12" data-name="矩形 12" class="cls-1" width="20" height="20"/>
  <path id="icon_filter" class="cls-2" d="M1645,86s2.84,4.954,4,7v6c0,0.5,3.08,1.693,3,1V93c0.58-1.051,4-7,4-7h-11Zm2,7-4.76-6.9c-0.09-.135-0.81-2.1.76-2.1,0,0,9.93.02,15,0a1.4,1.4,0,0,1,.61,2.1L1654,93v7c0,1.308-.03,2.55-2,2l-4-1c-0.92-.262-1-1.047-1-2V93Z" transform="translate(-1640 -83)"/>
</svg>
