<?xml version="1.0" encoding="UTF-8"?>
<svg width="10px" height="10px" viewBox="0 0 10 10" version="1.1" xmlns="http://www.w3.org/2000/svg" xmlns:xlink="http://www.w3.org/1999/xlink">
    <!-- Generator: Sketch 42 (36781) - http://www.bohemiancoding.com/sketch -->
    <title>ic_xiajiang</title>
    <desc>Created with Sketch.</desc>
    <defs></defs>
    <g id="Page-1" stroke="none" stroke-width="1" fill="none" fill-rule="evenodd">
        <g id="用户分析05" transform="translate(-1107.000000, -372.000000)" fill-rule="nonzero" fill="#F52D2D">
            <g id="Group-16" transform="translate(217.000000, 211.000000)">
                <g id="Group-8" transform="translate(300.000000, 0.000000)">
                    <g id="Group-13">
                        <g id="Group-11-Copy-2" transform="translate(538.000000, 59.000000)">
                            <path d="M56.7147495,102.139098 C56.8693988,101.963347 57.1230762,101.963347 57.2776754,102.139098 L61.9073547,107.414309 C62.0620441,107.59009 61.9944188,107.734499 61.7560922,107.734499 L60.0252204,107.734499 C59.7868537,107.734499 59.5924749,107.924309 59.5924749,108.157014 L59.5924749,111.537385 C59.5924749,111.77004 59.3981263,111.9599 59.1597495,111.9599 L54.8326653,111.9599 C54.5942786,111.9599 54.3998497,111.77005 54.3998497,111.537385 L54.3998497,108.157004 C54.3998497,107.924289 54.2055411,107.734499 53.9671643,107.734499 L52.2363026,107.734499 C51.9980461,107.734499 51.9302806,107.59007 52.0850401,107.414289 L56.7147495,102.139098 Z" id="ic_xiajiang" transform="translate(56.996191, 106.983592) scale(1, -1) translate(-56.996191, -106.983592) "></path>
                        </g>
                    </g>
                </g>
            </g>
        </g>
    </g>
</svg>