<?xml version="1.0" encoding="UTF-8" standalone="no"?>
<svg width="137px" height="137px" viewBox="0 0 137 137" version="1.1" xmlns="http://www.w3.org/2000/svg" xmlns:xlink="http://www.w3.org/1999/xlink">
    <!-- Generator: Sketch 42 (36781) - http://www.bohemiancoding.com/sketch -->
    <title>ic_01</title>
    <desc>Created with Sketch.</desc>
    <defs></defs>
    <g id="引导页" stroke="none" stroke-width="1" fill="none" fill-rule="evenodd">
        <g id="引导页01" transform="translate(-541.000000, -526.000000)">
            <g id="ic_01" transform="translate(541.000000, 526.000000)">
                <path d="M137,68.5 C137,106.333406 106.333406,137 68.5,137 C30.6665938,137 0,106.333406 0,68.5 C0,30.6665938 30.6665938,0 68.5,0 C106.333406,0 137,30.6665938 137,68.5" id="Fill-1" fill="#F3E8FF"></path>
                <polygon id="Fill-3" fill="#FFFFFF" points="68.5 128.4375 2.140625 85.625 68.5 42.8125 134.859375 85.625"></polygon>
                <polygon id="Stroke-5" stroke="#4D5152" stroke-width="2" stroke-linejoin="round" points="68.5 128.4375 2.140625 85.625 68.5 42.8125 134.859375 85.625"></polygon>
                <polygon id="Fill-7" fill="#CFAAFD" points="68.5 111.3125 2.140625 68.5 68.5 25.6875 134.859375 68.5"></polygon>
                <polygon id="Fill-9" fill="#8A4CD6" points="68.5 94.1875 27.828125 68.5 68.5 42.8125 109.171875 68.5"></polygon>
                <polygon id="Stroke-11" stroke="#4D5152" stroke-width="2" stroke-linejoin="round" points="68.5 111.3125 2.140625 68.5 68.5 25.6875 134.859375 68.5"></polygon>
                <polygon id="Stroke-13" stroke="#4D5152" stroke-width="2" stroke-linejoin="round" points="68.5 94.1875 2.140625 51.375 68.5 8.5625 134.859375 51.375"></polygon>
            </g>
        </g>
    </g>
</svg>