<?xml version="1.0" encoding="UTF-8" standalone="no"?>
<svg width="135px" height="131px" viewBox="0 0 135 131" version="1.1" xmlns="http://www.w3.org/2000/svg" xmlns:xlink="http://www.w3.org/1999/xlink">
    <!-- Generator: Sketch 42 (36781) - http://www.bohemiancoding.com/sketch -->
    <title>ic_02</title>
    <desc>Created with Sketch.</desc>
    <defs>
        <polygon id="path-1" points="0 133 137 133 137 0 0 0"></polygon>
    </defs>
    <g id="引导页" stroke="none" stroke-width="1" fill="none" fill-rule="evenodd">
        <g id="引导页01" transform="translate(-989.000000, -525.000000)">
            <g id="ic_02" transform="translate(988.000000, 524.000000)">
                <polygon id="Fill-1" fill="#FFFFFF" points="126.296875 130.854839 10.703125 130.854839 2.140625 122.274194 2.140625 117.983871 53.515625 117.983871 57.796875 122.274194 79.203125 122.274194 83.484375 117.983871 134.859375 117.983871 134.859375 122.274194"></polygon>
                <g id="Group-27">
                    <path d="M122.015625,120.129032 L14.984375,120.129032 L14.984375,51.483871 C14.984375,47.9293387 17.861375,45.0483871 21.40625,45.0483871 L115.59375,45.0483871 C119.138625,45.0483871 122.015625,47.9293387 122.015625,51.483871 L122.015625,120.129032 Z" id="Fill-2" fill="#FFFFFF"></path>
                    <polygon id="Stroke-4" stroke="#4D5152" stroke-width="2" points="126.296875 130.854839 10.703125 130.854839 2.140625 122.274194 2.140625 117.983871 53.515625 117.983871 57.796875 122.274194 79.203125 122.274194 83.484375 117.983871 134.859375 117.983871 134.859375 122.274194"></polygon>
                    <path d="M122.015625,115.83871 L122.015625,51.483871 C122.015625,47.9293387 119.138625,45.0483871 115.59375,45.0483871 L21.40625,45.0483871 C17.861375,45.0483871 14.984375,47.9293387 14.984375,51.483871 L14.984375,115.83871" id="Stroke-6" stroke="#4D5152" stroke-width="2"></path>
                    <mask id="mask-2" fill="white">
                        <use xlink:href="#path-1"></use>
                    </mask>
                    <g id="Clip-9"></g>
                    <polygon id="Fill-8" fill="#D3AFFF" mask="url(#mask-2)" points="21.40625 111.548387 115.59375 111.548387 115.59375 51.483871 21.40625 51.483871"></polygon>
                    <path d="M57.796875,105.112903 L62.078125,105.112903" id="Stroke-10" stroke="#4D5152" stroke-width="2" mask="url(#mask-2)"></path>
                    <path d="M49.234375,105.112903 L53.515625,105.112903" id="Stroke-11" stroke="#4D5152" stroke-width="2" mask="url(#mask-2)"></path>
                    <path d="M66.359375,105.112903 L70.640625,105.112903" id="Stroke-12" stroke="#4D5152" stroke-width="2" mask="url(#mask-2)"></path>
                    <path d="M74.921875,105.112903 L79.203125,105.112903" id="Stroke-13" stroke="#4D5152" stroke-width="2" mask="url(#mask-2)"></path>
                    <path d="M83.484375,105.112903 L87.765625,105.112903" id="Stroke-14" stroke="#4D5152" stroke-width="2" mask="url(#mask-2)"></path>
                    <polyline id="Stroke-15" stroke="#4D5152" stroke-width="2" mask="url(#mask-2)" points="68.5 98.6774194 68.5 27.8870968 109.171875 27.8870968"></polyline>
                    <polyline id="Stroke-16" stroke="#4D5152" stroke-width="2" mask="url(#mask-2)" points="59.9375 8.58064516 59.9375 2.14516129 107.03125 2.14516129"></polyline>
                    <path d="M59.9375,98.6774194 L59.9375,21.4516129" id="Stroke-17" stroke="#4D5152" stroke-width="2" mask="url(#mask-2)"></path>
                    <polyline id="Stroke-18" stroke="#4D5152" stroke-width="2" mask="url(#mask-2)" points="85.625 98.6774194 85.625 70.7903226 96.328125 70.7903226"></polyline>
                    <polyline id="Stroke-19" stroke="#4D5152" stroke-width="2" mask="url(#mask-2)" points="77.0625 21.4516129 77.0625 15.016129 29.96875 15.016129"></polyline>
                    <path d="M77.0625,98.6774194 L77.0625,34.3225806" id="Stroke-20" stroke="#4D5152" stroke-width="2" mask="url(#mask-2)"></path>
                    <polyline id="Stroke-21" stroke="#4D5152" stroke-width="2" mask="url(#mask-2)" points="51.375 98.6774194 51.375 62.2096774 25.6875 62.2096774"></polyline>
                    <path d="M124.15625,27.8870968 C124.15625,32.6257581 120.322391,36.4677419 115.59375,36.4677419 C110.865109,36.4677419 107.03125,32.6257581 107.03125,27.8870968 C107.03125,23.1484355 110.865109,19.3064516 115.59375,19.3064516 C120.322391,19.3064516 124.15625,23.1484355 124.15625,27.8870968" id="Fill-22" fill="#6E30BA" mask="url(#mask-2)"></path>
                    <path d="M12.84375,15.016129 L17.125,15.016129" id="Stroke-23" stroke="#4D5152" stroke-width="2" mask="url(#mask-2)"></path>
                    <path d="M21.40625,15.016129 L25.6875,15.016129" id="Stroke-24" stroke="#4D5152" stroke-width="2" mask="url(#mask-2)"></path>
                    <path d="M111.3125,2.14516129 L115.59375,2.14516129" id="Stroke-25" stroke="#4D5152" stroke-width="2" mask="url(#mask-2)"></path>
                    <path d="M119.875,2.14516129 L124.15625,2.14516129" id="Stroke-26" stroke="#4D5152" stroke-width="2" mask="url(#mask-2)"></path>
                </g>
            </g>
        </g>
    </g>
</svg>