<svg id="night" xmlns="http://www.w3.org/2000/svg" width="22" height="22" viewBox="0 0 22 22">
  <defs>
    <style>
      .cls-1 {
        fill: #6969d7;
        fill-opacity: 0;
      }

      .cls-2 {
        fill: #6d36f3;
        fill-rule: evenodd;
      }
    </style>
  </defs>
  <rect id="bg" class="cls-1" width="22" height="22"/>
  <path id="形状_653" data-name="形状 653" class="cls-2" d="M1599.39,88.151a5.461,5.461,0,0,0-4.23-.964,5.59,5.59,0,0,0-3.65,2.422,5.965,5.965,0,0,0-.93,4.39,5.724,5.724,0,0,0,5.57,4.84,5.569,5.569,0,0,0,4.65-2.514,5.961,5.961,0,0,0,.93-4.389A5.8,5.8,0,0,0,1599.39,88.151Zm-10.84,7.89-1.12.671a1.3,1.3,0,0,0-.45,1.744,1.223,1.223,0,0,0,1.07.638,1.166,1.166,0,0,0,.61-0.171l1.12-.671a1.3,1.3,0,0,0,.45-1.744A1.207,1.207,0,0,0,1588.55,96.041Zm14.59-5.977a1.167,1.167,0,0,0,.61-0.171l1.13-.671a1.3,1.3,0,0,0,.45-1.744,1.217,1.217,0,0,0-1.69-.468l-1.12.671a1.3,1.3,0,0,0-.45,1.744A1.223,1.223,0,0,0,1603.14,90.064Zm-6.99,9.986a1.254,1.254,0,0,0-1.23,1.277v1.342a1.236,1.236,0,1,0,2.47,0v-1.342A1.262,1.262,0,0,0,1596.15,100.05Zm0-14.165a1.262,1.262,0,0,0,1.24-1.277V83.265a1.236,1.236,0,1,0-2.47,0v1.343A1.253,1.253,0,0,0,1596.15,85.885Zm8.73,10.827-1.13-.671a1.209,1.209,0,0,0-1.68.468,1.3,1.3,0,0,0,.45,1.744l1.12,0.671a1.215,1.215,0,0,0,1.69-.468A1.3,1.3,0,0,0,1604.88,96.712Zm-15.1-9.031-1.12-.671a1.205,1.205,0,0,0-1.68.468,1.3,1.3,0,0,0,.45,1.744l1.12,0.671a1.228,1.228,0,0,0,.62.171,1.208,1.208,0,0,0,1.06-.638A1.3,1.3,0,0,0,1589.78,87.681Z" transform="translate(-1586 -82)"/>
</svg>
