<svg id="save" xmlns="http://www.w3.org/2000/svg" width="20" height="20" viewBox="0 0 20 20">
  <defs>
    <style>
      .cls-1 {
        fill: #fff;
        opacity: 0;
      }

      .cls-2 {
        fill: #8794a8;
        fill-rule: evenodd;
      }
    </style>
  </defs>
  <rect id="bg" class="cls-1" width="20" height="20"/>
  <path id="save-2" data-name="save" class="cls-2" d="M1530.99,84a2.658,2.658,0,0,1,2,1l3.86,4.63a5.145,5.145,0,0,1,.14,1.37v1a1,1,0,1,1-2,0V91l-4-5h-1v5a1.7,1.7,0,0,1-2,2h-3a1.7,1.7,0,0,1-2-2V86h-2V99a1.249,1.249,0,0,0,1,1h6a1,1,0,0,1,0,2h-7a1.7,1.7,0,0,1-2-2V86a1.7,1.7,0,0,1,2-2h10Zm2.31,9.973a0.876,0.876,0,0,1,.61-0.252,0.858,0.858,0,0,1,.61.252l2.59,2.584a0.867,0.867,0,0,1,0,1.218l-2.59,2.584a0.864,0.864,0,0,1-1.22,0,1.122,1.122,0,0,1-.31-1.359l1-1h-5c-0.99,0-1.1-2,0-2h5l-1-1c-0.32-.323-0.02-0.65.28-0.991ZM1527.99,86h-3v4c0,0.833.09,1.031,1,1h1a0.892,0.892,0,0,0,1-1V86Zm0,0" transform="translate(-1518 -83)"/>
</svg>
