<svg id="sun" xmlns="http://www.w3.org/2000/svg" width="22" height="22.031" viewBox="0 0 22 22.031">
  <defs>
    <style>
      .cls-1 {
        fill: #6969d7;
        fill-opacity: 0;
      }

      .cls-2 {
        fill: #8794a8;
        fill-rule: evenodd;
      }
    </style>
  </defs>
  <rect id="bg" class="cls-1" y="0.031" width="22" height="22"/>
  <path id="形状_653" data-name="形状 653" class="cls-2" d="M1596.15,98.821a5.743,5.743,0,0,1-5.58-4.841,6.055,6.055,0,0,1,.93-4.389,5.638,5.638,0,0,1,3.66-2.422,5.465,5.465,0,0,1,4.23.964,5.882,5.882,0,0,1,2.34,3.785,5.961,5.961,0,0,1-.93,4.389,5.618,5.618,0,0,1-3.65,2.422A5.546,5.546,0,0,1,1596.15,98.821Zm0.01-9.192a3.15,3.15,0,0,0-.57.053h0a3.148,3.148,0,0,0-2.06,1.369,3.391,3.391,0,0,0-.53,2.48,3.221,3.221,0,0,0,3.72,2.685,3.171,3.171,0,0,0,2.06-1.37,3.385,3.385,0,0,0,.52-2.48,3.318,3.318,0,0,0-1.32-2.14A3.083,3.083,0,0,0,1596.16,89.628Zm-8.11,9.448a1.223,1.223,0,0,1-1.07-.638,1.3,1.3,0,0,1,.45-1.744l1.12-.671a1.206,1.206,0,0,1,1.68.468,1.3,1.3,0,0,1-.45,1.744l-1.12.671A1.193,1.193,0,0,1,1588.05,99.076Zm15.09-9.031a1.223,1.223,0,0,1-1.07-.638,1.3,1.3,0,0,1,.45-1.744l1.12-.671a1.217,1.217,0,0,1,1.69.468,1.312,1.312,0,0,1-.45,1.745l-1.13.671A1.166,1.166,0,0,1,1603.14,90.045Zm-6.99,13.882a1.253,1.253,0,0,1-1.23-1.276v-1.343a1.231,1.231,0,1,1,2.46,0v1.343A1.253,1.253,0,0,1,1596.15,103.927Zm0-18.062a1.253,1.253,0,0,1-1.23-1.277V83.246a1.231,1.231,0,1,1,2.46,0v1.342A1.253,1.253,0,0,1,1596.15,85.865Zm8.11,13.211a1.228,1.228,0,0,1-.62-0.17l-1.12-.671a1.3,1.3,0,0,1-.45-1.744,1.208,1.208,0,0,1,1.68-.468l1.13,0.671a1.312,1.312,0,0,1,.45,1.744A1.235,1.235,0,0,1,1604.26,99.076Zm-15.09-9.031a1.2,1.2,0,0,1-.62-0.17l-1.12-.671a1.3,1.3,0,0,1-.45-1.745,1.206,1.206,0,0,1,1.68-.468l1.12,0.671a1.3,1.3,0,0,1,.45,1.744A1.208,1.208,0,0,1,1589.17,90.045Z" transform="translate(-1586 -81.969)"/>
</svg>
