<?xml version="1.0" standalone="no"?><!DOCTYPE svg PUBLIC "-//W3C//DTD SVG 1.1//EN" "http://www.w3.org/Graphics/SVG/1.1/DTD/svg11.dtd"><svg t="1540350088621" class="icon" style="" viewBox="0 0 1024 1024" version="1.1" xmlns="http://www.w3.org/2000/svg" p-id="14606" xmlns:xlink="http://www.w3.org/1999/xlink" width="200" height="200"><defs><style type="text/css"></style></defs><path d="M822.165303 928.18656c-35.571763 30.709436-80.868181 54.202154-135.735707 70.478155-54.867526 16.378366-120.534536 24.567549-196.949849 24.567549-77.029502 0-143.105972-8.189183-198.382956-24.516366-55.17462-16.378366-100.573403-39.871084-136.196349-70.529338a274.030533 274.030533 0 0 1-78.513791-111.679982C59.701191 772.694449 51.358461 723.047528 51.358461 667.565813c0-33.319738 3.685132-64.489816 11.055397-93.561415A406.490567 406.490567 0 0 1 92.304375 492.675576c12.437322-25.130555 26.461297-48.009085 41.867198-68.584407 15.457083-20.52414 31.477172-39.35926 48.11145-56.300633a597.400894 597.400894 0 0 1 131.897027-100.829315h348.654463a607.023184 607.023184 0 0 1 130.924562 100.829315c16.071271 16.992555 32.142543 35.827675 48.11145 56.351815 16.122454 20.626504 30.248794 43.453852 42.481386 68.584407a446.310469 446.310469 0 0 1 29.788153 81.380005 362.883168 362.883168 0 0 1 11.618403 93.510233c0 55.532897-8.34273 105.179818-25.079373 148.940764a274.081716 274.081716 0 0 1-78.513791 111.6288z m-210.154907-284.932383v-0.102365a38.28443 38.28443 0 0 0 37.772607-38.540342 38.233248 38.233248 0 0 0-37.772607-38.591525v-0.051182H535.595083c0.153547-0.870101-0.102365-1.689019 0-2.507938l89.569188-93.203138c14.638164-16.736643 7.165535-30.607071-7.574994-45.808242-14.842894-15.252353-39.154531-18.425662-51.182393-5.118239L489.377382 502.809689 406.052446 418.205193c-10.543573-10.748303-31.01653-7.216717-45.705877 7.779724-14.791712 15.047624-18.16975 35.878858-7.677359 46.575978l85.11632 86.549427a18.272114 18.272114 0 0 0-3.224491 6.909623H365.260079a38.28443 38.28443 0 0 0-37.977336 38.591525c0 21.291876 16.992555 38.642707 37.977336 38.642707l0.204729-0.102365v0.102365h75.749942v38.386795h-75.749942v0.153547h-0.204729a38.28443 38.28443 0 0 0-37.977336 38.642707c0 21.291876 16.992555 38.591525 37.977336 38.591524l0.204729-0.051182h75.749942v38.898619h0.818918a47.804355 47.804355 0 0 0 46.473613 57.631374 47.804355 47.804355 0 0 0 46.473614-57.631374h0.511824v-38.898619h76.56886a38.233248 38.233248 0 0 0 37.670241-38.540342 38.233248 38.233248 0 0 0-37.670241-38.591525v-0.153547H535.441536v-38.386795h76.56886zM741.808946 104.764217c-3.531585 5.834793-7.677359 11.260127-12.488504 16.173636a455.5233 455.5233 0 0 0-23.543901 23.441536c-10.645938 11.157762-21.39424 22.520253-32.244908 34.343386-12.897963 13.716881-26.358933 28.406228-40.434091 44.016859H344.019385a2205.961149 2205.961149 0 0 1-40.43409-44.016859c-10.90185-11.77195-21.650152-23.185624-32.244908-34.292203a474.102509 474.102509 0 0 0-23.543901-23.543901 63.568532 63.568532 0 0 1-13.05151-16.122454 72.06481 72.06481 0 0 1-7.677359-19.654039 44.221588 44.221588 0 0 1 10.082931-39.615172c5.732428-5.885975 10.953032-8.54746 15.457083-7.882089 4.452868 0.665371 9.41756 2.252025 14.842894 4.91351 5.476516 2.55912 12.079045 5.578881 19.807586 8.803372 7.677359 3.275673 17.299649 4.91351 28.86687 4.913509 10.236479 0 18.425662-2.917396 24.567549-8.803371 6.090705-5.885975 11.823133-12.283774 17.299649-19.142215 5.476516-6.858441 11.413674-13.153875 17.862655-19.039851C382.303815 3.269531 390.95364 0.352135 401.906672 0.352135c10.90185 0 19.398127 2.917396 25.488832 8.854554 6.090705 5.885975 11.720768 12.232592 16.89019 19.03985 5.118239 6.858441 11.055397 13.102693 17.76029 18.630391 6.756076 5.578881 15.866542 8.34273 27.484945 8.34273a33.678015 33.678015 0 0 0 23.595084-8.34273C519.165535 41.298049 525.153875 35.10498 530.937486 28.246539c5.834793-6.858441 12.027862-13.153875 18.83512-19.03985A38.540342 38.540342 0 0 1 576.131539 0.352135c10.90185 0 19.654039 2.917396 26.000656 8.854554 6.448982 5.885975 12.283774 12.232592 17.402013 19.03985 5.118239 6.858441 10.69712 13.307422 16.839008 19.142215 6.090705 5.885975 14.586982 8.803372 25.488831 8.803372 11.567221 0 20.984781-1.637837 28.406229-4.91351 7.370265-3.224491 13.819246-6.19307 19.295762-8.803371a51.182393 51.182393 0 0 1 14.842894-4.91351c4.555233-0.665371 9.724655 1.996113 15.508265 7.882088 5.118239 5.834793 8.291548 12.232592 9.571108 19.091033 2.55912 13.870429-0.153547 28.201499-7.677359 40.178179z" p-id="14607" fill="#bfbfbf"></path></svg>