<svg xmlns="http://www.w3.org/2000/svg" width="20" height="20" viewBox="0 0 20 20">
  <defs>
    <style>
      .cls-1 {
        fill-rule: evenodd;
        opacity: 0.45;
      }
    </style>
  </defs>
  <path id="icon_Management" class="cls-1" d="M328,169a2.428,2.428,0,0,1-.351.253c-0.68-.117-1.328-0.716-2.032-0.469-0.621.461-.4,1.378-0.65,2.04-0.593.269-1.5,0.277-1.671,1.065-0.058.676,0.592,1.064,0.959,1.532-0.115.707-.674,1.356-0.5,2.09,0.514,0.56,1.37.4,2.036,0.633,0.108,0.249.111,0.571,0.207,0.856h-7a1.013,1.013,0,0,1-1-1V166a2.069,2.069,0,0,1,.846-1.319l2.944-2.844a1.963,1.963,0,0,1,2.728,0l2.944,2.844A1.7,1.7,0,0,1,328,166v3Zm-4.847-2.53a1.258,1.258,0,1,0-1.257-1.258,1.257,1.257,0,0,0,1.257,1.258h0Zm5.949,2.809a1.858,1.858,0,0,1,.7,1.283c0.528,0.191,1.223,0,1.618.493,0.284,0.536-.278,1.112-0.382,1.672a2.081,2.081,0,0,1,.809,1.383,0.727,0.727,0,0,1-.6.561,4.131,4.131,0,0,0-.634.239,4.575,4.575,0,0,0-.422,1.334,0.54,0.54,0,0,1-.753.251,2.506,2.506,0,0,0-1.106-.353c-0.416.23-.7,0.785-1.23,0.722-0.638-.107-0.644-0.858-0.851-1.336-0.532-.186-1.282-0.038-1.629-0.507-0.245-.5.307-1.107,0.4-1.671a1.922,1.922,0,0,1-.768-1.226c0.135-.63.863-0.637,1.337-0.854,0.2-.528.022-1.261,0.52-1.63,0.562-.2,1.082.281,1.625,0.375,0.41-.3.781-0.933,1.371-0.736h0Zm-1.283,2.349a1.455,1.455,0,0,0-.939,2.278,1.431,1.431,0,0,0,2.493-.356,1.448,1.448,0,0,0-1.554-1.922h0Zm0,0" transform="translate(-314.922 -159.141)"/>
</svg>
